HIERARCHY
ROOT Hips
{
  OFFSET 1.44925e-005 102.336 -0.101585
  CHANNELS 6 Xposition Yposition Zposition Zrotation Xrotation Yrotation
  JOINT LeftUpLeg
  {
    OFFSET 8.9458 -8.66707 0.101652
    CHANNELS 3 Zrotation Xrotation Yrotation
    JOINT LeftLeg
    {
      OFFSET 0 -44.4227 1.3727
      CHANNELS 3 Zrotation Xrotation Yrotation
      JOINT LeftFoot
      {
        OFFSET -0.253549 -42.0924 -1.46059
        CHANNELS 3 Zrotation Xrotation Yrotation
        JOINT LeftToes
        {
          OFFSET -0.04 -4.41509 8.4991
          CHANNELS 3 Zrotation Xrotation Yrotation
          End Site
          {
            OFFSET 0.08 -0.047448 9.77979
          }
        }
      }
    }
  }
  JOINT Spine
  {
    OFFSET 0 11.8905 0
    CHANNELS 3 Zrotation Xrotation Yrotation
    JOINT Spine1
    {
      OFFSET 0 25.6574 0.127663
      CHANNELS 3 Zrotation Xrotation Yrotation
      JOINT RightShoulder
      {
        OFFSET -8.99 -0.362252 -0.22
        CHANNELS 3 Zrotation Xrotation Yrotation
        JOINT RightArm
        {
          OFFSET -10.2827 -0.00338 0.322123
          CHANNELS 3 Zrotation Xrotation Yrotation
          JOINT RightForeArm
          {
            OFFSET -26.364 0.099144 -1.42434
            CHANNELS 3 Zrotation Xrotation Yrotation
            JOINT RightHand
            {
              OFFSET -22.0324 0.085362 1.02216
              CHANNELS 3 Zrotation Xrotation Yrotation
              End Site
              {
                OFFSET -13.3284 -0.6 1.50291
              }
            }
          }
        }
      }
      JOINT LeftShoulder1
      {
        OFFSET 8.99 -0.362252 -0.22
        CHANNELS 3 Zrotation Xrotation Yrotation
        JOINT LeftArm
        {
          OFFSET 10.2827 -0.00337999 0.322123
          CHANNELS 3 Zrotation Xrotation Yrotation
          JOINT LeftForeArm
          {
            OFFSET 26.2597 0.099144 -1.42434
            CHANNELS 3 Zrotation Xrotation Yrotation
            JOINT LeftHand
            {
              OFFSET 22.0902 0.085362 1.02216
              CHANNELS 3 Zrotation Xrotation Yrotation
              End Site
              {
                OFFSET 13.419 -0.6 1.50291
              }
            }
          }
        }
      }
      JOINT Head
      {
        OFFSET 0 8.73416 0.011341
        CHANNELS 3 Zrotation Xrotation Yrotation
        End Site
        {
          OFFSET -0.29 12.7742 2.51395
        }
      }
    }
  }
  JOINT RightUpLeg
  {
    OFFSET -8.9458 -8.66707 0.101652
    CHANNELS 3 Zrotation Xrotation Yrotation
    JOINT RightLeg
    {
      OFFSET 0 -44.4227 1.3727
      CHANNELS 3 Zrotation Xrotation Yrotation
      JOINT RightFoot
      {
        OFFSET 0.253549 -42.0924 -1.46059
        CHANNELS 3 Zrotation Xrotation Yrotation
        JOINT RightToes
        {
          OFFSET 0.04 -4.41509 8.4991
          CHANNELS 3 Zrotation Xrotation Yrotation
          End Site
          {
            OFFSET -0.08 -0.137448 9.77979
          }
        }
      }
    }
  }
}
MOTION
Frames:	14
Frame Time:	0.0333333
187.343 103.031 2.59073 -3.59215 -0.245742 -93.5897 -1.5384 2.196 2.23343 -0.287383 8.43791 23.3559 -1.70248 -11.4163 -0.00547125 -1.32547e-009 8.75233e-006 -1.47701e-008 1.24499 6.80776 0.615784 -2.99674 -1.25165 1.25362 37.7043 1.74806 0.0123927 41.0522 -14.4687 4.57899 7.95901 35.0785 9.64732 -7.3406 9.63715 -0.831351 -44.7459 3.54021 -3.38323 -26.0199 -11.0238 -0.0737508 -5.93677 34.5605 -13.4285 5.82328 9.61819 -0.917488 0.348284 -4.49675 -6.79724 -0.405595 2.58188 -3.97283 0.229135 10.0018 -11.1258 2.52806 -13.4595 -0.0700316 0.0462048 0.000530889 0.662642 
187.323 103.031 2.59073 -3.59122 -0.23306 -93.5905 -1.52409 2.21144 2.25298 -0.296242 8.43492 23.3497 -1.66137 -11.4261 -0.00547144 -1.32547e-009 8.75233e-006 -1.47701e-008 1.28155 6.73448 0.61569 -3.03144 -1.15614 1.25357 37.7002 1.74806 0.0123927 41.083 -14.4254 4.61626 8.00242 34.9327 9.62915 -7.39707 9.63468 -0.872619 -44.7007 3.5397 -3.38322 -26.0719 -11.1444 -0.139366 -5.99389 34.6775 -13.333 5.82328 9.61819 -0.917488 0.286107 -4.69185 -6.81912 -0.404111 2.59389 -3.98713 0.246757 9.99418 -11.1253 2.51985 -13.4449 -0.0700273 0.0462048 0.000530889 0.662642 
187.29 103.031 2.59193 -3.58789 -0.220315 -93.5906 -1.50672 2.24185 2.27814 -0.311364 8.41241 23.3293 -1.62761 -11.4408 -0.00547172 -1.32547e-009 8.75233e-006 -1.47701e-008 1.30365 6.63677 0.616246 -3.0378 -1.03508 1.25352 37.6732 1.74806 0.0123927 41.1438 -14.3063 4.65959 8.1213 34.4991 9.5845 -7.83436 9.62199 -0.932557 -44.7201 3.54108 -3.38363 -26.0499 -11.1521 -0.208633 -6.04307 34.7097 -13.2732 5.82328 9.61819 -0.917488 0.233549 -4.89146 -6.71149 -0.402909 2.60159 -4.00174 0.259959 10.0045 -11.1293 2.5061 -13.4409 -0.0700261 0.0462048 0.000530889 0.662642 
187.268 103.031 2.5969 -3.56174 -0.219799 -93.5918 -1.50255 2.24555 2.28479 -0.324334 8.37681 23.3213 -1.61267 -11.4417 -0.00547174 -1.32547e-009 8.75233e-006 -1.47701e-008 1.25725 6.61788 0.623449 -2.94746 -1.04451 1.25352 37.6288 1.74806 0.0123927 41.1686 -14.1685 4.64961 8.20726 34.1119 9.5739 -8.31257 9.60606 -0.971169 -44.8818 3.55534 -3.38727 -25.8783 -10.8715 -0.197901 -6.03699 34.4632 -13.3547 5.82328 9.61819 -0.917488 0.191851 -4.96699 -6.48498 -0.405775 2.56393 -3.992 0.247836 10.0426 -11.1434 2.50937 -13.4495 -0.0700286 0.0462048 0.000530889 0.662642 
187.258 103.031 2.60225 -3.51564 -0.228701 -93.6033 -1.51229 2.20317 2.27321 -0.327485 8.37308 23.3357 -1.60524 -11.4378 -0.00547166 -1.32547e-009 8.75233e-006 -1.47701e-008 1.18084 6.64868 0.643936 -2.81728 -1.11021 1.25408 37.54 1.74806 0.0123927 41.2069 -14.1606 4.62956 8.21336 33.9832 9.58831 -8.48503 9.61266 -1.17601 -45.0787 3.57606 -3.39827 -25.6919 -10.5641 -0.176141 -6.02777 34.144 -13.4571 5.82328 9.61819 -0.917488 0.0661327 -5.07314 -6.51305 -0.414542 2.51446 -3.98156 0.240165 10.0531 -11.1311 2.5286 -13.4581 -0.0700312 0.0462048 0.000530889 0.662642 
187.246 103.031 2.60778 -3.48905 -0.232238 -93.6097 -1.5224 2.1589 2.26323 -0.319872 8.42039 23.3496 -1.61295 -11.4525 -0.00547195 -1.32547e-009 8.75233e-006 -1.47701e-008 1.17011 6.63038 0.658345 -2.77825 -1.02997 1.26011 37.4093 1.74806 0.0123927 41.3415 -14.2383 4.68373 8.17473 33.9818 9.62116 -8.48551 9.62703 -1.39957 -45.1558 3.58922 -3.41228 -25.6487 -10.5516 -0.260679 -6.05153 34.0797 -13.4466 5.82328 9.61819 -0.917488 -0.114607 -5.37515 -6.83196 -0.433967 2.52102 -3.99878 0.26403 10.0098 -11.0881 2.53788 -13.4661 -0.0700335 0.0462048 0.000530889 0.662642 
187.225 103.031 2.61617 -3.50382 -0.220556 -93.6117 -1.52092 2.16731 2.26946 -0.311207 8.4676 23.3506 -1.63249 -11.485 -0.00547258 -1.32547e-009 8.75233e-006 -1.47701e-008 1.25827 6.52482 0.655061 -2.87211 -0.758266 1.2798 37.3375 1.74865 0.0123927 41.4874 -14.1924 4.82112 8.10345 34.0746 9.70366 -8.47316 9.60863 -1.1047 -45.106 3.58997 -3.42064 -25.7215 -10.7674 -0.443722 -6.08198 34.2574 -13.36 5.82328 9.61819 -0.917488 -0.174298 -5.74661 -6.86282 -0.436957 2.57725 -4.01243 0.282231 9.96663 -11.0611 2.53478 -13.4791 -0.0700373 0.0462048 0.000530889 0.662642 
187.199 103.031 2.62825 -3.53212 -0.200046 -93.6378 -1.51095 2.22176 2.28802 -0.311755 8.46095 23.3603 -1.63816 -11.514 -0.00547314 -1.32547e-009 8.75233e-006 -1.47701e-008 1.37241 6.37525 0.648886 -2.99732 -0.444816 1.30535 37.3987 1.75094 0.0130632 41.4896 -14.0672 4.97598 7.99163 34.4399 9.79923 -8.29373 9.56731 -0.341395 -45.0351 3.58554 -3.42222 -25.7874 -10.9321 -0.611458 -6.09669 34.3978 -13.3019 5.82328 9.61819 -0.917488 -0.0665527 -5.97834 -6.26731 -0.411286 2.62108 -3.98348 0.253417 9.96408 -11.0649 2.54524 -13.491 -0.0700408 0.0462048 0.000530889 0.662642 
187.173 103.031 2.63911 -3.54083 -0.18291 -93.6913 -1.50208 2.27039 2.30759 -0.318946 8.42677 23.3904 -1.62545 -11.5345 -0.00547354 -1.32547e-009 8.75233e-006 -1.47701e-008 1.42493 6.27198 0.65867 -3.03567 -0.266909 1.3271 37.4884 1.75362 0.0170993 41.3936 -14.1139 5.06355 7.88649 34.9254 9.82912 -7.91696 9.56305 -0.00264388 -44.9885 3.58172 -3.42341 -25.8349 -10.9763 -0.683467 -6.1009 34.4037 -13.2925 5.82328 9.61819 -0.917488 0.012254 -6.06679 -5.54063 -0.386984 2.64132 -3.94871 0.21761 9.96041 -11.0483 2.56565 -13.4924 -0.0700412 0.0462048 0.000530889 0.662642 
187.143 103.031 2.64297 -3.532 -0.173177 -93.7258 -1.49609 2.28347 2.32109 -0.321722 8.42619 23.4131 -1.62265 -11.5552 -0.00547395 -1.32547e-009 8.75233e-006 -1.47701e-008 1.39642 6.3238 0.674721 -2.9669 -0.338657 1.3278 37.4516 1.75694 0.024984 41.3708 -14.2259 5.00471 7.84365 34.9493 9.85203 -7.67131 9.60648 -0.549656 -44.9449 3.58014 -3.42414 -25.9143 -10.9675 -0.634143 -6.0734 34.3822 -13.3271 5.82328 9.61819 -0.917488 -0.0501064 -6.19213 -5.24284 -0.392197 2.67386 -3.96436 0.235648 9.91413 -10.9916 2.55978 -13.4914 -0.0700409 0.0462048 0.000530889 0.662642 
187.114 103.031 2.64105 -3.51806 -0.168132 -93.711 -1.49002 2.27075 2.32625 -0.316298 8.45786 23.4037 -1.64315 -11.5716 -0.00547427 -1.32547e-009 8.75233e-006 -1.47701e-008 1.3174 6.54679 0.670097 -2.84141 -0.645134 1.2914 37.3141 1.76062 0.0326804 41.4299 -14.0208 4.80766 7.84052 34.3759 9.99046 -7.72588 9.6441 -1.24208 -44.9224 3.57927 -3.42429 -25.9757 -10.8282 -0.455988 -5.97882 34.3015 -13.4573 5.82328 9.61819 -0.917488 -0.124914 -6.36413 -5.2063 -0.406213 2.71291 -3.99916 0.279268 9.85624 -10.9627 2.52841 -13.4996 -0.0700433 0.0462048 0.000530889 0.662642 
187.091 103.031 2.63801 -3.49394 -0.164773 -93.6816 -1.48466 2.24773 2.3284 -0.308333 8.47745 23.3821 -1.66915 -11.5782 -0.0054744 -1.32547e-009 8.75233e-006 -1.47701e-008 1.23636 6.78884 0.639706 -2.72412 -0.996399 1.22951 37.2362 1.76434 0.0431127 41.4438 -13.608 4.62315 7.84153 33.9078 10.1415 -7.77904 9.64556 -1.29782 -44.9415 3.5786 -3.42381 -25.9585 -10.4846 -0.201655 -5.84468 34.0187 -13.6887 5.82328 9.61819 -0.917488 -0.101752 -6.45009 -5.01087 -0.392876 2.71917 -3.98043 0.275597 9.82571 -11.0165 2.51329 -13.5062 -0.0700453 0.0462048 0.000530889 0.662642 
187.068 103.031 2.63908 -3.45745 -0.159296 -93.6802 -1.48017 2.22062 2.32878 -0.3031 8.48234 23.3796 -1.68532 -11.5909 -0.00547464 -1.32547e-009 8.75233e-006 -1.47701e-008 1.22767 6.90841 0.604909 -2.70436 -1.21773 1.18441 37.2911 1.76745 0.0558527 41.3841 -13.5672 4.57022 7.85958 34.133 10.0806 -7.57095 9.63581 -0.996657 -44.9126 3.57481 -3.42038 -25.9605 -10.1717 0.00834611 -5.74919 33.6771 -13.8884 5.82328 9.61819 -0.917488 -0.0541416 -6.47058 -4.74949 -0.355942 2.69921 -3.91424 0.226422 9.80752 -11.1073 2.52585 -13.4971 -0.0700426 0.0462048 0.000530889 0.662642 
187.036 103.03 2.64664 -3.42564 -0.151312 -93.6902 -1.47681 2.20171 2.32708 -0.303351 8.49549 23.3861 -1.68937 -11.6192 -0.0054752 -1.32547e-009 8.75233e-006 -1.47701e-008 1.34443 6.98372 0.578614 -2.85341 -1.39312 1.18282 37.426 1.76931 0.0587789 41.3216 -13.987 4.54942 7.89144 34.7057 9.86834 -7.30206 9.6429 -0.940215 -44.7381 3.5552 -3.4082 -26.0967 -10.2156 0.109039 -5.72883 33.6615 -13.9089 5.82328 9.61819 -0.917488 -0.0783875 -6.49055 -4.82367 -0.328565 2.6937 -3.8681 0.189676 9.78603 -11.1574 2.54966 -13.4923 -0.0700412 0.0462048 0.000530889 0.662642 
